<svg xmlns="http://www.w3.org/2000/svg" viewBox="0 0 240 280" aria-hidden="true">
  <defs>
    <radialGradient id="catBody" cx="50%" cy="50%" r="60%">
      <stop offset="0%" stop-color="#fbf6ff"/>
      <stop offset="100%" stop-color="#cdb8e8"/>
    </radialGradient>
  </defs>
  <path d="M58 130 L78 70 L102 118 Z" fill="url(#catBody)"/>
  <path d="M182 130 L162 70 L138 118 Z" fill="url(#catBody)"/>
  <path d="M70 122 L82 88 L94 118 Z" fill="#e6b48f" opacity=".75"/>
  <path d="M170 122 L158 88 L146 118 Z" fill="#e6b48f" opacity=".75"/>
  <ellipse cx="120" cy="160" rx="78" ry="68" fill="url(#catBody)"/>
  <ellipse cx="98" cy="158" rx="5" ry="7" fill="#2a2042"/>
  <ellipse cx="142" cy="158" rx="5" ry="7" fill="#2a2042"/>
  <ellipse cx="100" cy="155" rx="1.6" ry="2" fill="#fff"/>
  <ellipse cx="144" cy="155" rx="1.6" ry="2" fill="#fff"/>
  <path d="M115 176 L125 176 L120 182 Z" fill="#a3283a"/>
  <path d="M120 182 L120 188 M120 188 Q112 194 106 188 M120 188 Q128 194 134 188" stroke="#2a2042" stroke-width="2" fill="none" stroke-linecap="round"/>
  <ellipse cx="86" cy="175" rx="9" ry="6" fill="#e6b48f" opacity=".55"/>
  <ellipse cx="154" cy="175" rx="9" ry="6" fill="#e6b48f" opacity=".55"/>
  <path d="M70 174 L46 168 M70 180 L46 182 M70 186 L46 196" stroke="#7e63a8" stroke-width="1.4" stroke-linecap="round" fill="none"/>
  <path d="M170 174 L194 168 M170 180 L194 182 M170 186 L194 196" stroke="#7e63a8" stroke-width="1.4" stroke-linecap="round" fill="none"/>
  <path d="M70 220 Q120 240 170 220 L168 240 Q120 256 72 240 Z" fill="#a3283a"/>
  <path d="M120 240 L140 268 L132 268 L116 250 Z" fill="#7e1a2a"/>
  <g fill="#9c7fc4">
    <path d="M40 100 L43 110 L53 113 L43 116 L40 126 L37 116 L27 113 L37 110 Z"/>
    <path d="M210 70 L212 76 L218 78 L212 80 L210 86 L208 80 L202 78 L208 76 Z"/>
  </g>
</svg>
